<svg xmlns="http://www.w3.org/2000/svg" version="1.0" width="192.000000pt" height="192.000000pt" viewBox="0 0 192.000000 192.000000" preserveAspectRatio="xMidYMid meet">

<g transform="translate(0.000000,192.000000) scale(0.100000,-0.100000)" fill="white" stroke="none">
<path d="M125 1905 c-50 -18 -100 -71 -114 -122 -15 -54 -15 -1593 0 -1648 14 -51 73 -110 124 -124 56 -15 1594 -15 1650 0 51 14 110 73 124 124 15 56 15 1594 0 1650 -14 51 -73 110 -124 124 -28 7 -283 11 -830 11 -655 -1 -797 -3 -830 -15z m427 -552 c14 -16 33 -43 42 -61 l17 -33 41 36 c69 58 158 71 235 34 50 -24 93 -81 93 -121 0 -16 2 -28 4 -28 3 0 20 14 38 31 56 51 106 72 189 77 89 5 136 -12 172 -62 33 -46 31 -185 -6 -323 -51 -190 -33 -198 119 -52 116 112 128 115 127 30 -2 -145 -190 -320 -347 -324 -60 -1 -86 14 -113 67 -26 50 -27 168 -4 309 12 71 19 137 16 148 -9 26 -48 41 -78 30 -35 -14 -76 -67 -115 -151 -41 -87 -44 -128 -16 -244 l18 -76 -25 -26 c-13 -15 -53 -40 -88 -56 -117 -54 -141 -24 -141 179 0 70 5 189 12 265 12 152 8 168 -42 168 -37 0 -88 -58 -136 -152 -46 -90 -56 -186 -30 -287 9 -34 16 -70 16 -80 0 -45 -150 -132 -199 -115 -46 16 -54 63 -48 294 4 167 9 219 26 284 23 83 68 180 108 234 32 42 78 44 115 5z"/>
</g>
</svg>